<svg width="456" height="128" viewBox="0 0 456 128" fill="none" xmlns="http://www.w3.org/2000/svg">
  <defs>
    <linearGradient id="ring" x1="18" y1="14" x2="116" y2="118" gradientUnits="userSpaceOnUse">
      <stop stop-color="#7EF6FF"/>
      <stop offset="1" stop-color="#45BEE5"/>
    </linearGradient>
    <linearGradient id="ember" x1="45" y1="34" x2="97" y2="86" gradientUnits="userSpaceOnUse">
      <stop stop-color="#FFD3A0"/>
      <stop offset="1" stop-color="#FF925B"/>
    </linearGradient>
    <linearGradient id="coreA" x1="52" y1="26" x2="83" y2="95" gradientUnits="userSpaceOnUse">
      <stop stop-color="#9EF8FF"/>
      <stop offset="1" stop-color="#4BC7EB"/>
    </linearGradient>
    <filter id="glow" x="0" y="0" width="136" height="128" filterUnits="userSpaceOnUse" color-interpolation-filters="sRGB">
      <feGaussianBlur stdDeviation="6" result="blur"/>
      <feColorMatrix in="blur" type="matrix" values="0 0 0 0 0.231 0 0 0 0 0.859 0 0 0 0 0.965 0 0 0 0.38 0"/>
      <feBlend in2="SourceGraphic" mode="screen"/>
    </filter>
  </defs>

  <g filter="url(#glow)">
    <circle cx="66" cy="64" r="45" stroke="url(#ring)" stroke-width="7"/>
    <path d="M31 89C37.6 68.6 52 40.6 74 30.5" stroke="url(#ring)" stroke-width="7" stroke-linecap="round"/>
    <path d="M42 37C60.7 20.8 87 20.3 106 35.8" stroke="url(#ember)" stroke-width="6.5" stroke-linecap="round"/>
    <path d="M20 88L116 34" stroke="url(#ring)" stroke-width="5.5" stroke-linecap="round"/>
    <path d="M67 38L88 90H78L72.7 76H57.8L52.3 90H43L64 38H67ZM60.8 68.6H69.8L65.4 56.2L60.8 68.6Z" fill="url(#coreA)"/>
  </g>

  <text x="140" y="79" fill="#EAF5FF" font-family="Manrope, Arial, sans-serif" font-size="60" font-weight="800" letter-spacing="0.4">
    AniSpin
  </text>
  <text x="141" y="108" fill="#97ACBF" font-family="Manrope, Arial, sans-serif" font-size="21" font-weight="500" letter-spacing="0.3">
    The Anime Decision Engine
  </text>
</svg>
